<svg width="25" height="24" viewBox="0 0 25 24" fill="none" xmlns="http://www.w3.org/2000/svg">
<g clip-path="url(#clip0_547_6554)">
<path fill-rule="evenodd" clip-rule="evenodd" d="M12.1214 0.600006C9.29042 0.601475 6.55223 1.60417 4.39648 3.42879C2.24074 5.25342 0.808017 7.78099 0.354501 10.5596C-0.0990138 13.3381 0.456246 16.1865 1.92101 18.5954C3.38577 21.0042 5.6645 22.8165 8.34976 23.7081C8.94217 23.818 9.16531 23.4509 9.16531 23.1387C9.16531 22.8265 9.15346 21.9213 9.14951 20.9317C5.83201 21.6484 5.13099 19.5318 5.13099 19.5318C4.58993 18.1574 3.80794 17.7961 3.80794 17.7961C2.7258 17.0617 3.88891 17.0755 3.88891 17.0755C5.08755 17.1599 5.71749 18.2987 5.71749 18.2987C6.77988 20.111 8.50773 19.5868 9.18703 19.2805C9.29366 18.5128 9.6037 17.9905 9.94532 17.694C7.29527 17.3955 4.51093 16.3785 4.51093 11.835C4.49451 10.6567 4.93426 9.51715 5.73921 8.6522C5.61677 8.35375 5.208 7.14818 5.85571 5.51065C5.85571 5.51065 6.85689 5.19257 9.1357 6.72604C11.0903 6.19455 13.1526 6.19455 15.1072 6.72604C17.384 5.19257 18.3832 5.51065 18.3832 5.51065C19.0329 7.14426 18.6241 8.34983 18.5017 8.6522C19.3092 9.51729 19.7499 10.6588 19.7319 11.8389C19.7319 16.3922 16.9417 17.3955 14.2877 17.6881C14.7142 18.0572 15.0953 18.7778 15.0953 19.8852C15.0953 21.4717 15.0815 22.748 15.0815 23.1387C15.0815 23.4548 15.2968 23.8239 15.901 23.7081C18.5866 22.8164 20.8656 21.0038 22.3303 18.5945C23.795 16.1852 24.35 13.3364 23.896 10.5576C23.4419 7.7788 22.0085 5.2512 19.852 3.42689C17.6956 1.60258 14.9567 0.600544 12.1254 0.600006H12.1214Z" fill="#9D9E91"/>
<path d="M4.71204 17.6252C4.68637 17.6842 4.59158 17.7018 4.51457 17.6606C4.43756 17.6194 4.3803 17.5428 4.40794 17.4819C4.43559 17.421 4.5284 17.4053 4.60541 17.4466C4.68242 17.4878 4.74166 17.5663 4.71204 17.6252Z" fill="#F0F2DA"/>
<path d="M5.19601 18.1613C5.15511 18.1818 5.10832 18.1875 5.06366 18.1774C5.01899 18.1674 4.97922 18.1423 4.95114 18.1063C4.87413 18.0238 4.85832 17.9099 4.91757 17.8589C4.97681 17.8078 5.08345 17.8314 5.16046 17.9139C5.23748 17.9963 5.25525 18.1102 5.19601 18.1613Z" fill="#F0F2DA"/>
<path d="M5.66589 18.8426C5.59283 18.8936 5.46841 18.8426 5.3993 18.7405C5.38019 18.7222 5.36499 18.7002 5.35461 18.6759C5.34422 18.6516 5.33887 18.6255 5.33887 18.5991C5.33887 18.5727 5.34422 18.5466 5.35461 18.5223C5.36499 18.498 5.38019 18.4761 5.3993 18.4578C5.47236 18.4087 5.59678 18.4578 5.66589 18.5579C5.73501 18.658 5.73698 18.7915 5.66589 18.8426Z" fill="#F0F2DA"/>
<path d="M6.3037 19.5023C6.23853 19.575 6.10623 19.5554 5.99762 19.4572C5.88901 19.359 5.86333 19.2255 5.9285 19.1548C5.99366 19.0841 6.12597 19.1038 6.23853 19.2C6.35109 19.2962 6.37281 19.4317 6.3037 19.5023Z" fill="#F0F2DA"/>
<path d="M7.19831 19.8872C7.16869 19.9794 7.03441 20.0207 6.90013 19.9814C6.76585 19.9421 6.67699 19.8322 6.70266 19.7379C6.72833 19.6437 6.86459 19.6005 7.00084 19.6437C7.1371 19.6869 7.22398 19.791 7.19831 19.8872Z" fill="#F0F2DA"/>
<path d="M8.1738 19.9539C8.1738 20.0501 8.06322 20.1326 7.92104 20.1346C7.77886 20.1365 7.66235 20.058 7.66235 19.9618C7.66235 19.8656 7.77293 19.7831 7.91511 19.7811C8.05729 19.7792 8.1738 19.8557 8.1738 19.9539Z" fill="#F0F2DA"/>
<path d="M9.08201 19.8028C9.09978 19.899 9.00105 19.9991 8.85887 20.0227C8.71669 20.0462 8.59228 19.9893 8.57451 19.895C8.55674 19.8008 8.65942 19.6987 8.79765 19.6732C8.93588 19.6476 9.06424 19.7065 9.08201 19.8028Z" fill="#F0F2DA"/>
</g>
<defs>
<clipPath id="clip0_547_6554">
<rect x="0.125732" width="24" height="24" rx="6" fill="white"/>
</clipPath>
</defs>
</svg>
