<svg width="118" height="219" viewBox="0 0 118 219" fill="none" xmlns="http://www.w3.org/2000/svg">
<path d="M85.9446 88.8914C85.661 80.0889 84.3761 71.3704 82.5684 62.8867C84.7128 65.7294 87.6726 67.6688 90.1007 70.2856C91.997 72.3269 93.9643 74.4124 95.8296 76.5112C97.8589 78.7915 100.322 81.1427 101.86 83.7905C102.511 84.9152 103.566 87.1778 103.459 88.2671C99.5869 89.5423 95.103 89.1438 91.0621 89.1438C89.6443 89.1438 87.2694 89.1925 85.9446 88.8958V88.8914Z" fill="#78DCE8"/>
<path d="M24.1445 89.016C26.0852 82.9897 31.3091 78.3981 35.0265 73.5275C37.2153 70.6627 39.6655 67.7181 42.0315 65.1367C41.9296 70.2597 41.903 75.5111 40.8441 80.5146C40.5339 81.9846 40.0864 83.4015 39.8427 84.8849C39.6743 85.9077 39.6788 87.3025 39.28 88.1393C34.6188 89.1223 28.8367 89.0027 24.1445 89.016Z" fill="#78DCE8"/>
<path d="M19.1408 108.02C25.4015 108.02 31.6533 107.772 37.9051 107.772C39.221 109.153 40.6256 109.361 42.6017 109.149C43.8866 109.012 44.2366 108.192 45.2867 107.772C53.2931 104.562 62.4914 107.258 71.1181 107.271C74.8753 107.276 79.2707 106.497 82.9438 107.395C83.9717 107.648 83.7767 108.649 85.0085 108.649C85.8946 108.649 86.8384 108.312 87.0732 107.395C88.7259 106.908 91.021 107.156 92.7535 107.085C95.567 106.97 98.283 106.873 101.088 107.116C103.17 107.294 105.248 107.271 107.34 107.271C107.34 110.189 107.264 113.023 106.865 115.919C106.591 117.929 106.679 120.205 106.032 122.145C105.106 124.93 102.554 126.564 100.778 128.782C99.5325 130.336 98.9477 132.475 97.7026 133.9C95.3898 136.553 95.4651 141.14 94.0694 144.359C93.6706 145.276 92.6648 146.617 92.1021 147.68C90.2102 151.244 89.0228 155.26 87.1928 158.9C86.2004 160.875 85.2123 162.863 84.3705 164.913C83.9407 165.954 83.6527 167.153 82.9438 168.035C82.0133 169.19 80.2321 169.823 80.0638 171.533C79.9087 173.082 78.9827 174.127 78.9384 175.659C78.8232 179.494 80.0992 182.744 81.4993 186.348C82.1418 188 82.5671 189.054 82.5671 190.785L81.8183 191.662C79.2751 192.667 76.3419 191.701 73.812 192.41C73.6259 191.533 72.9302 190.772 72.6865 190.037C70.1832 190.037 67.6842 190.037 65.1808 190.037C65.2916 190.745 65.3714 191.476 65.5575 192.162C61.0026 193.442 56.018 193.579 51.2948 192.91C51.379 191.985 51.2284 190.749 51.543 189.908C49.5846 189.944 47.6572 190.532 45.6633 190.532C45.3488 191.064 45.4728 191.883 45.2867 192.534C43.8999 192.618 42.5175 192.405 41.1484 192.25C40.435 192.171 39.3274 192.317 38.7779 192.033C39.5755 186.53 38.552 179.954 42.2827 175.407C41.9459 173.326 40.661 170.944 39.8014 169.049C38.4545 166.073 37.2094 163.195 36.3011 160.056C35.2732 156.509 34.006 153.458 32.4198 150.155C30.9621 147.118 30.5323 143.42 29.5531 140.201C29.079 138.643 28.0644 137.066 28.1441 135.401C24.6172 130.022 23.2526 123.123 21.3252 117.092C20.6827 115.078 19.8719 113.085 19.2604 111.084C19.0655 110.442 19.1408 108.604 18.7598 108.52L19.1364 108.02H19.1408Z" fill="#78DCE8"/>
<path d="M77.4363 59.5133C70.8123 52.3624 67.9279 40.6197 67.9279 30.5066C53.4216 32.105 62.0128 15.3944 69.4299 19.003C69.2527 16.9795 68.845 15.2571 67.9279 13.5037C63.4041 14.0926 60.8077 13.2336 56.9174 11.002C54.8882 14.1324 45.9823 14.3361 44.9056 18.5027C42.6903 27.0706 45.9247 35.7181 46.4254 44.255C46.771 50.1352 48.0559 58.0388 44.405 62.5065C47.0767 68.7365 43.9043 81.7543 43.9043 89.0115C51.2151 86.6958 61.6805 89.1665 69.3679 89.5385C73.3467 89.7289 77.0109 89.3348 80.9322 89.5119C83.9008 82.7816 82.7222 65.2208 77.4274 59.5089L77.4363 59.5133ZM53.8735 24.2146C50.9049 24.3474 51.2239 17.0238 54.1659 18.7595V19.0075C55.2515 20.6502 54.4318 22.6162 53.8735 24.2146Z" fill="#78DCE8"/>
<path d="M77.9381 32.0075C78.1906 25.2241 70.6052 23.2493 65.1775 23.5061C62.3551 23.6389 59.2225 24.5156 60.8486 28.0048C62.4747 31.4939 66.17 31.0157 69.1785 30.5596C72.1869 30.1035 75.1467 29.7537 77.9336 32.0031L77.9381 32.0075Z" fill="#F9FF73"/>
<path d="M45.1641 190.909C45.1641 196.692 44.7166 202.444 44.7875 208.16C38.1591 208.209 29.2621 208.492 23.13 210.693C24.7073 211.561 24.2244 213.004 22.6426 213.783C26.5815 216.923 35.8861 214.935 39.9048 214.908C40.7334 213.137 42.4791 212.304 44.3533 212.424C44.7122 214.368 43.383 215.86 42.1601 217.162C44.854 215.528 48.753 216.25 50.7912 213.411C57.4019 213.411 64.1942 213.699 70.6809 214.536C73.1311 214.855 75.9269 214.815 78.1866 215.284C78.0315 212.676 75.7807 212.056 73.6849 211.158C76.2769 209.351 79.8393 210.431 80.4418 213.407C84.8815 212.628 90.1452 213.584 94.3278 212.282C92.4359 212.123 91.2529 210.666 90.9516 208.908C87.0437 208.749 71.8595 211.826 70.6986 207.031C70.1846 204.91 71.1638 200.801 71.0442 198.405C70.9068 195.7 71.4518 193.167 71.4385 190.528C69.0636 190.528 66.6843 190.528 64.3094 190.528C65.2177 194.491 68.0003 203.148 66.1925 207.416C64.7614 210.799 58.9482 211.317 55.6783 210.493C46.6041 208.209 50.9773 198.184 50.8001 191.281C49.0278 191.201 46.9674 190.754 45.1686 190.905L45.1641 190.909Z" fill="#F9FF73"/>
<path d="M68.9306 8.5045C70.2908 9.77972 72.5106 10.7715 74.4336 11.5066C67.845 14.0172 62.9623 14.9027 56.4181 11.5066C52.8779 14.0083 45.2437 13.7293 44.907 19.5077C43.2189 16.4702 43.724 12.8084 42.9043 9.50519C48.8814 4.28034 54.7433 0.870912 62.9269 1.00375" stroke="#F0F2DA" stroke-width="0.5" stroke-miterlimit="10"/>
<path d="M52.7541 18.7549C51.221 20.2426 51.7439 22.616 53.7953 23.6654C54.8675 22.8683 55.2309 21.6374 54.9207 20.2515" stroke="#141721" stroke-width="0.5" stroke-miterlimit="10"/>
<path d="M66.9325 8.62829C65.4039 7.0387 65.2621 3.54957 64.6816 1.50391" stroke="#F0F2DA" stroke-width="0.5" stroke-miterlimit="10"/>
<path d="M45.5352 20.6328C45.5352 34.5672 50.0811 48.9887 46.6606 62.2633" stroke="#141721" stroke-width="0.5" stroke-miterlimit="10"/>
<path d="M68.8066 33.3848C69.0681 41.8464 71.5404 53.6687 77.8144 60.0138" stroke="#141721" stroke-width="0.5" stroke-miterlimit="10"/>
<path d="M61.2997 25.5078C58.2867 19.3797 73.1431 17.2366 73.3115 22.8821" stroke="#F0F2DA" stroke-width="0.5" stroke-miterlimit="10"/>
<path d="M64.3047 24.3825C67.3575 22.8416 70.8401 23.1383 73.7599 24.6659C77.5084 26.6274 77.4419 29.7579 78.1907 33.3843C77.8495 29.0273 67.7961 30.515 65.0535 31.1349" stroke="#141721" stroke-width="0.5" stroke-miterlimit="10"/>
<path d="M69.5587 18.7547C69.4966 17.2138 68.9428 15.7526 68.0566 14.6279" stroke="#F0F2DA" stroke-width="0.5" stroke-miterlimit="10"/>
<path d="M44.7871 61.1377C41.145 65.4593 41.3 74.0404 41.0342 79.5265C40.7019 86.4649 40.6133 93.3989 40.2677 100.333C40.1702 102.259 40.0018 109.565 41.4064 108.772" stroke="#F0F2DA" stroke-width="0.5" stroke-miterlimit="10"/>
<path d="M77.4375 57.3877C82.3645 68.9045 82.1563 84.2248 83.4279 96.9902C83.7513 100.231 84.6641 104.907 83.357 107.976C83.0025 107.816 82.6924 107.493 82.3158 107.272" stroke="#F0F2DA" stroke-width="0.5" stroke-miterlimit="10"/>
<path d="M44.4108 108.773C42.5455 102.127 43.2854 92.8418 43.2854 85.8857C43.2854 78.4204 42.9531 71.2606 43.662 64.1406" stroke="#F0F2DA" stroke-width="0.5" stroke-miterlimit="10"/>
<path d="M79.3164 58.8887C82.8522 63.1394 83.2288 71.4549 83.8181 76.7063C84.5934 83.5871 84.589 90.3661 85.6125 97.1452C85.9448 99.3414 87.0481 106.532 85.3201 107.272" stroke="#F0F2DA" stroke-width="0.5" stroke-miterlimit="10"/>
<path d="M24.5215 88.1431C27.2951 84.9019 29.6124 81.3065 32.3949 78.0166C34.6546 75.3422 38.1372 72.5305 39.9095 69.7676" stroke="#141721" stroke-width="0.5" stroke-miterlimit="10"/>
<path d="M83.8184 64.1406C86.911 68.0061 91.0892 71.0436 94.142 75.0331C97.1815 79.0004 101.581 82.618 102.583 87.3956" stroke="#141721" stroke-width="0.5" stroke-miterlimit="10"/>
<path d="M44.7871 88.5156C51.1807 88.5156 57.4591 88.892 63.9014 88.892H72.9269C74.3048 88.892 75.6828 88.892 77.0652 88.892C77.7785 88.892 81.4782 89.016 79.6926 88.892" stroke="#F0F2DA" stroke-width="0.5" stroke-miterlimit="10"/>
<path d="M38.4068 88.5156C26.9887 90.579 13.8515 87.1297 2.37585 90.393C-1.37257 94.4091 -0.0477718 103.734 1.99924 108.397C13.0894 106.44 25.4247 107.648 36.9048 107.648" stroke="#F0F2DA" stroke-width="0.5" stroke-miterlimit="10"/>
<path d="M45.1641 107.271C57.4683 107.271 69.3206 107.271 81.5672 107.271" stroke="#F0F2DA" stroke-width="0.5" stroke-miterlimit="10"/>
<path d="M87.199 106.519C96.2554 107.094 106.109 105.77 115.348 105.77C118.272 100.213 118.059 92.4515 116.096 87.0186C106.362 87.8997 95.2231 90.0516 85.3203 88.896" stroke="#F0F2DA" stroke-width="0.5" stroke-miterlimit="10"/>
<path d="M18.8887 109.145C20.6698 113.298 19.4824 119.612 21.1882 124.301C22.8099 128.764 25.0784 133.356 26.771 137.646" stroke="#141721" stroke-width="0.5" stroke-miterlimit="10"/>
<path d="M96.5781 136.903C101.106 128.003 111.098 118.846 107.088 108.024" stroke="#141721" stroke-width="0.5" stroke-miterlimit="10"/>
<path d="M29.3994 110.646C29.3994 120.201 28.1322 129.096 30.0685 138.399C32.0047 147.702 35.988 157.784 39.6256 167.273C41.7037 172.693 44.2602 179.224 44.7875 184.909" stroke="#141721" stroke-width="0.5" stroke-miterlimit="10"/>
<path d="M44.4102 189.784C46.2356 190.599 49.7226 190.98 51.5392 189.784C51.5924 185.153 52.2792 180.627 52.288 175.907C52.3013 171.626 50.9765 168.522 49.6606 164.656" stroke="#141721" stroke-width="0.5" stroke-miterlimit="10"/>
<path d="M54.543 176.284C64.0026 176.284 69.1069 175.934 74.4327 168.03" stroke="#141721" stroke-width="0.5" stroke-miterlimit="10"/>
<path d="M64.3047 178.533C65.5586 181.911 65.4301 185.644 65.4301 189.408C67.6809 189.789 71.0439 190.4 72.187 189.031C78.6603 181.292 77.4419 169.695 86.268 161.025C86.268 161.025 89.7107 155.003 90.5968 151.718C91.8596 147.029 92.9451 142.083 93.7692 137.283C95.2757 128.498 94.7086 119.2 94.7086 110.265" stroke="#141721" stroke-width="0.5" stroke-miterlimit="10"/>
<path d="M45.5353 192.41C46.3417 192.322 47.2145 192.41 48.0298 192.392C47.0595 192.857 46.1866 193.685 45.2739 194.221C46.5632 194.584 47.8526 194.881 49.1774 195.027C47.8747 195.306 46.5366 195.775 45.5574 196.462C46.7759 196.665 47.9943 196.94 49.1862 197.276C48.1273 197.666 47.0993 198.153 46.0271 198.419C46.6873 198.392 47.4316 198.525 48.0519 198.485C47.0329 198.786 46.0315 199.362 44.9238 199.526C45.8011 199.933 46.3948 200.916 47.0151 201.337C46.5233 201.505 46.0448 201.726 45.5707 201.89C46.3594 202.076 47.3031 202.585 48.4286 202.519C44.8928 202.957 46.0271 204.751 45.9163 207.416" stroke="#141721" stroke-width="0.5" stroke-miterlimit="10"/>
<path d="M50.7516 206.203C50.6231 201.514 50.9377 196.71 50.92 192.034" stroke="#141721" stroke-width="0.5" stroke-miterlimit="10"/>
<path d="M67.4325 191.533C68.4915 192.197 69.8517 192.06 71.0525 192.193C70.2638 192.538 69.4042 192.729 68.6599 193.158C69.6789 193.734 71.2474 193.729 72.3906 193.982C70.9816 194.863 69.1029 195.301 67.9022 195.7C68.877 195.598 69.8739 195.771 70.7113 196.205C69.8606 196.492 68.6377 196.674 68.1636 197.418C68.6731 197.528 69.3289 197.657 69.7631 197.821C69.1162 198.122 68.3984 198.379 67.8136 198.697C68.425 199.065 69.2447 199.176 69.7498 199.667C68.9035 199.946 68.0395 200.349 67.1445 200.371C68.5269 200.389 69.8783 200.876 71.2563 200.911C70.3391 201.403 68.8327 201.491 68.1104 202.333C68.7751 202.966 69.6125 203.201 70.4189 203.586C69.546 204.002 68.1946 204.423 69.5992 205.375" stroke="#141721" stroke-width="0.5" stroke-miterlimit="10"/>
<path d="M65.9296 206.871C67.1702 201.824 65.1232 196.209 65.7613 191.201" stroke="#141721" stroke-width="0.5" stroke-miterlimit="10"/>
<path d="M23.0577 211.166C21.055 211.826 20.0315 213.265 19.2207 215.036C20.5987 214.438 22.1539 212.446 23.7224 212.702" stroke="#F0F2DA" stroke-width="0.5" stroke-miterlimit="10"/>
<path d="M22.3945 214.04C23.2009 215.448 28.8634 214.709 30.4718 214.709C33.1568 214.709 35.7444 214.877 38.4117 214.877" stroke="#141721" stroke-width="0.5" stroke-miterlimit="10"/>
<path d="M42.9084 213.204C40.3075 212.929 40.0151 216.715 40.0727 218.371C41.1892 217.623 42.0355 216.104 43.2362 215.364C44.0471 214.864 46.5726 214.696 45.7441 213.204" stroke="#F0F2DA" stroke-width="0.5" stroke-miterlimit="10"/>
<path d="M49.2482 212.871C47.724 214.757 45.4865 216.989 43.0762 217.206" stroke="#141721" stroke-width="0.5" stroke-miterlimit="10"/>
<path d="M38.7383 214.204C39.5846 212.778 42.3715 211.454 44.0773 211.538" stroke="#141721" stroke-width="0.5" stroke-miterlimit="10"/>
<path d="M50.25 207.872C51.4552 209.949 52.2305 210.485 54.92 210.206" stroke="#141721" stroke-width="0.5" stroke-miterlimit="10"/>
<path d="M49.918 213.704C51.2516 214.275 53.9633 213.846 55.421 213.872" stroke="#141721" stroke-width="0.5" stroke-miterlimit="10"/>
<path d="M90.9512 208.913C94.2255 208.89 93.5697 208.82 96.3744 210.454C97.4422 211.073 98.6563 212.402 98.6252 213.704C97.3536 211.1 93.9995 212.442 92.1209 211.202" stroke="#F0F2DA" stroke-width="0.5" stroke-miterlimit="10"/>
<path d="M77.2725 212.703C78.8055 213.04 80.0772 215.444 80.2766 216.87C79.8246 215.196 80.9678 213.646 79.8158 212.163C78.6638 210.68 76.5503 210.396 74.9375 211.038" stroke="#F0F2DA" stroke-width="0.5" stroke-miterlimit="10"/>
<path d="M94.6204 212.703C93.1672 213.722 89.5649 213.035 87.7838 213.035C85.7633 213.035 83.2688 212.584 81.4434 213.035" stroke="#141721" stroke-width="0.5" stroke-miterlimit="10"/>
<path d="M65.7628 208.536C65.1027 211.188 61.4207 210.369 58.9218 210.369C57.8141 210.369 54.7834 210.892 54.9163 212.371" stroke="#141721" stroke-width="0.5" stroke-miterlimit="10"/>
<path d="M57.5879 213.371C58.8728 214.664 61.9832 213.942 63.6536 213.858C65.7361 213.756 67.7964 213.871 69.9276 213.871" stroke="#141721" stroke-width="0.5" stroke-miterlimit="10"/>
<path d="M69.7676 212.039C70.9462 213.372 71.3848 213.677 73.1881 213.868C74.699 214.023 76.2365 214.74 77.774 214.541" stroke="#141721" stroke-width="0.5" stroke-miterlimit="10"/>
<path d="M72.6035 210.369C72.958 210.515 73.5783 210.582 73.7732 210.537" stroke="#141721" stroke-width="0.5" stroke-miterlimit="10"/>
<path d="M78.7756 176.532C79.4447 178.999 79.3383 181.669 79.9852 184.223C80.6321 186.778 82.2139 189.515 82.4443 192.034C79.9453 192.849 76.8216 192.008 74.2695 192.703" stroke="#141721" stroke-width="0.5" stroke-miterlimit="10"/>
<path d="M64.261 192.702C62.1785 193.707 57.9693 192.862 55.5634 192.87C54.5709 192.87 53.5784 192.87 52.5859 192.87" stroke="#141721" stroke-width="0.5" stroke-miterlimit="10"/>
<path d="M44.0774 192.37C42.2387 192.37 40.3689 191.857 38.5744 192.038C38.3396 189.545 39.3941 186.614 40.1163 184.241C40.7765 182.084 41.1133 179.981 41.9108 177.869" stroke="#141721" stroke-width="0.5" stroke-miterlimit="10"/>
<path d="M52.0841 168.199C51.5612 166.295 50.9321 164.294 50.582 162.363" stroke="#141721" stroke-width="0.5" stroke-miterlimit="10"/>
<path d="M69.2676 171.533C70.6544 169.248 71.9039 166.662 72.4356 164.032" stroke="#141721" stroke-width="0.5" stroke-miterlimit="10"/>
<path d="M90.7819 87.6835C90.5869 84.4202 89.0096 81.4579 88.6152 78.3496" stroke="#141721" stroke-width="0.5" stroke-miterlimit="10"/>
<path d="M90.6191 78.1807C91.6648 81.0588 91.3546 84.6586 92.7858 87.3507" stroke="#141721" stroke-width="0.5" stroke-miterlimit="10"/>
<path d="M36.7402 87.5192C37.3207 85.2034 37.3473 82.777 38.7429 80.6826" stroke="#141721" stroke-width="0.5" stroke-miterlimit="10"/>
<path d="M57.0868 19.84C55.9835 19.0739 54.8758 18.3699 53.582 18.0068" stroke="#141721" stroke-width="0.5" stroke-miterlimit="10"/>
<path d="M49.248 20.6727C49.5848 20.4424 50.9849 18.7687 51.1754 18.3613" stroke="#141721" stroke-width="0.5" stroke-miterlimit="10"/>
<path d="M52.084 24.0059C53.5506 24.2007 54.6095 24.2007 56.0894 23.6738" stroke="#141721" stroke-width="0.5" stroke-miterlimit="10"/>
<path d="M81.2734 89.0156C82.0178 91.3934 81.9425 94.6833 81.9425 97.3488C81.9425 100.289 82.4432 103.056 82.4432 106.019" stroke="#F0F2DA" stroke-width="0.5" stroke-miterlimit="10"/>
<path d="M42.2441 107.188C42.3061 104.057 41.5751 100.9 41.5751 97.6854C41.5751 95.042 40.7997 90.9772 41.7434 88.6836" stroke="#F0F2DA" stroke-width="0.5" stroke-miterlimit="10"/>
<path d="M39.0755 88.6836C38.5793 92.0886 37.6001 95.5689 37.9545 99.1953C38.1185 100.86 38.0963 102.529 38.2425 104.19C38.3888 105.85 38.9559 107.347 38.9116 108.857" stroke="#F0F2DA" stroke-width="0.5" stroke-miterlimit="10"/>
<path d="M27.2332 111.354C28.0751 113.263 27.1535 117.102 27.0649 119.289C26.9807 121.308 26.8965 123.31 26.8965 125.36" stroke="#141721" stroke-width="0.5" stroke-miterlimit="10"/>
<path d="M24.898 111.186C24.898 118.106 22.9972 127.104 27.5653 132.855" stroke="#141721" stroke-width="0.5" stroke-miterlimit="10"/>
<path d="M97.2878 108.021C97.2878 112.811 96.7871 117.447 96.7871 122.19" stroke="#141721" stroke-width="0.5" stroke-miterlimit="10"/>
<path d="M100.46 107.856C101.462 109.747 100.629 113.754 100.629 116.017C100.629 118.094 100.598 119.98 100.137 122.003C99.4013 125.227 97.9923 129.686 96.127 132.36" stroke="#141721" stroke-width="0.5" stroke-miterlimit="10"/>
<path d="M50.1668 158.781C52.5682 153.587 49.675 150.961 48.1641 146.276" stroke="#141721" stroke-width="0.5" stroke-miterlimit="10"/>
<path d="M73.6836 165.529C75.7882 161.132 74.4324 156.066 74.4324 151.275" stroke="#141721" stroke-width="0.5" stroke-miterlimit="10"/>
<path d="M34.4017 112.022C34.2156 115.175 36.4664 120.236 34.9023 123.026" stroke="#141721" stroke-width="0.5" stroke-miterlimit="10"/>
<path d="M69.9316 113.523C69.9316 117.69 69.9316 121.857 69.9316 126.028" stroke="#141721" stroke-width="0.5" stroke-miterlimit="10"/>
<path d="M90.4508 109.521C90.1805 113.462 91.3591 117.319 90.9515 121.273C90.6458 124.253 89.3786 127.02 88.9931 129.819C88.2088 135.491 88.3994 141.176 87.4512 146.529" stroke="#141721" stroke-width="0.5" stroke-miterlimit="10"/>
<path d="M31.9023 124.022C34.6893 134.078 31.5612 143.651 36.9047 153.029" stroke="#141721" stroke-width="0.5" stroke-miterlimit="10"/>
<path d="M70.4316 52.0127C70.9367 54.4879 72.1375 56.8169 73.4357 59.0131" stroke="#141721" stroke-width="0.5" stroke-miterlimit="10"/>
<path d="M49.9174 56.0107C50.3162 60.9876 47.7198 65.3269 47.4141 70.0116" stroke="#141721" stroke-width="0.5" stroke-miterlimit="10"/>
<path d="M67.4331 32.0078C67.4331 32.0078 65.6608 33.5 64.9297 34.0092" stroke="#141721" stroke-width="0.5" stroke-miterlimit="10"/>
<path d="M87.4473 74.0146C87.9081 74.9843 88.2448 75.9895 88.4486 77.0167" stroke="#141721" stroke-width="0.5" stroke-miterlimit="10"/>
<path d="M92.9531 80.0186V80.5189" stroke="#141721" stroke-width="0.5" stroke-miterlimit="10"/>
<path d="M38.9076 77.0166C38.5532 77.4594 38.3804 77.9376 38.407 78.5176" stroke="#141721" stroke-width="0.5" stroke-miterlimit="10"/>
<path d="M57.9238 10.5054C60.3342 9.85897 61.7166 8.47749 64.4282 8.75644" stroke="#F0F2DA" stroke-width="0.5" stroke-miterlimit="10"/>
<path d="M44.9108 12.5028C44.7513 11.5065 44.5652 10.497 44.4102 9.50069C47.4452 6.52962 52.421 4.78062 56.1694 3.50098" stroke="#F0F2DA" stroke-width="0.5" stroke-miterlimit="10"/>
<path d="M46.1641 18.7549C46.297 20.588 46.6647 22.7134 46.6647 24.2543" stroke="#141721" stroke-width="0.5" stroke-miterlimit="10"/>
</svg>
